<?xml version="1.0" encoding="UTF-8" standalone="no"?>
<svg width="800px" height="450px" viewBox="0 0 800 450" version="1.1" xmlns="http://www.w3.org/2000/svg" xmlns:xlink="http://www.w3.org/1999/xlink" xmlns:sketch="http://www.bohemiancoding.com/sketch/ns">
    <!-- Generator: Sketch 3.2.2 (9983) - http://www.bohemiancoding.com/sketch -->
    <title>logo</title>
    <desc>Created with Sketch.</desc>
    <defs/>
    <g id="Page-1" stroke="none" stroke-width="1" fill="none" fill-rule="evenodd" sketch:type="MSPage">
        <g id="logo" sketch:type="MSLayerGroup" fill="#FFFFFF">
            <rect id="Rectangle-1" fill-opacity="0.01" sketch:type="MSShapeGroup" x="0" y="0" width="800" height="450"/>
            <path d="M92.2875237,81.7764278 C92.2875237,81.7764278 152.77255,39 397.650627,39 C642.528705,39 708.829309,82.8315194 708.829309,82.8315194 C708.829309,82.8315194 739.74343,134.093898 739.74343,231.966204 C739.74343,329.83851 709.991418,367.30431 709.991418,367.30431 C709.991418,367.30431 646.030125,411.577963 402.158203,411.577963 C158.286281,411.577963 91.2511837,367.912244 91.2511837,367.912244 C91.2511837,367.912244 60,341.489736 60,221.3349 C60,101.180065 92.2875237,81.7764278 92.2875237,81.7764278 L92.2875237,81.7764278 L92.2875237,81.7764278 Z M258.416,202.304 L258.416,248 L280.56,248 C282.60801,248 284.602657,247.744003 286.544,247.232 C288.485343,246.719997 290.213326,245.930672 291.728,244.864 C293.242674,243.797328 294.447996,242.421342 295.344,240.736 C296.240004,239.050658 296.688,237.056012 296.688,234.752 C296.688,231.893319 295.994674,229.450677 294.608,227.424 C293.221326,225.397323 291.120014,223.978671 288.304,223.168 C290.35201,222.186662 291.898661,220.928008 292.944,219.392 C293.989339,217.855992 294.512,215.936012 294.512,213.632 C294.512,211.498656 294.160004,209.706674 293.456,208.256 C292.751996,206.805326 291.760006,205.642671 290.48,204.768 C289.199994,203.893329 287.664009,203.264002 285.872,202.88 C284.079991,202.495998 282.096011,202.304 279.92,202.304 L258.416,202.304 L258.416,202.304 Z M302.128,225.088 C302.256001,222.954656 302.789329,221.184007 303.728,219.776 C304.666671,218.367993 305.861326,217.237338 307.312,216.384 C308.762674,215.530662 310.394658,214.922668 312.208,214.56 C314.021342,214.197332 315.845324,214.016 317.68,214.016 C319.344008,214.016 321.029325,214.133332 322.736,214.368 C324.442675,214.602668 325.999993,215.06133 327.408,215.744 C328.816007,216.42667 329.967996,217.375994 330.864,218.592 C331.760004,219.808006 332.208,221.418657 332.208,223.424 L332.208,240.64 C332.208,242.133341 332.293332,243.56266 332.464,244.928 C332.634668,246.29334 332.933331,247.31733 333.36,248 L324.144,248 C323.973332,247.487997 323.834667,246.965336 323.728,246.432 C323.621333,245.898664 323.546667,245.354669 323.504,244.8 C322.053326,246.293341 320.346676,247.338664 318.384,247.936 C316.421324,248.533336 314.41601,248.832 312.368,248.832 C310.789325,248.832 309.31734,248.640002 307.952,248.256 C306.58666,247.871998 305.392005,247.274671 304.368,246.464 C303.343995,245.653329 302.544003,244.62934 301.968,243.392 C301.391997,242.15466 301.104,240.682675 301.104,238.976 C301.104,237.098657 301.434663,235.552006 302.096,234.336 C302.757337,233.119994 303.610661,232.149337 304.656,231.424 C305.701339,230.698663 306.895993,230.154668 308.24,229.792 C309.584007,229.429332 310.93866,229.141334 312.304,228.928 C313.66934,228.714666 315.013327,228.544001 316.336,228.416 C317.658673,228.287999 318.831995,228.096001 319.856,227.84 C320.880005,227.583999 321.690664,227.210669 322.288,226.72 C322.885336,226.229331 323.162667,225.514671 323.12,224.576 C323.12,223.594662 322.960002,222.816003 322.64,222.24 C322.319998,221.663997 321.893336,221.216002 321.36,220.896 C320.826664,220.575998 320.208004,220.362667 319.504,220.256 C318.799996,220.149333 318.042671,220.096 317.232,220.096 C315.439991,220.096 314.032005,220.479996 313.008,221.248 C311.983995,222.016004 311.386668,223.295991 311.216,225.088 L302.128,225.088 L302.128,225.088 Z M370.288,248 L370.288,214.912 L361.2,214.912 L361.2,232.256 C361.2,235.626684 360.645339,238.047993 359.536,239.52 C358.426661,240.992007 356.634679,241.728 354.16,241.728 C351.983989,241.728 350.469338,241.056007 349.616,239.712 C348.762662,238.367993 348.336,236.33068 348.336,233.6 L348.336,214.912 L339.248,214.912 L339.248,235.264 C339.248,237.31201 339.429332,239.178658 339.792,240.864 C340.154668,242.549342 340.783996,243.978661 341.68,245.152 C342.576004,246.325339 343.802659,247.231997 345.36,247.872 C346.917341,248.512003 348.911988,248.832 351.344,248.832 C353.26401,248.832 355.141324,248.405338 356.976,247.552 C358.810676,246.698662 360.303994,245.31201 361.456,243.392 L361.648,243.392 L361.648,248 L370.288,248 L370.288,248 Z M388.72,214.912 L388.72,204.992 L379.632,204.992 L379.632,214.912 L374.128,214.912 L374.128,220.992 L379.632,220.992 L379.632,240.512 C379.632,242.176008 379.909331,243.519995 380.464,244.544 C381.018669,245.568005 381.775995,246.357331 382.736,246.912 C383.696005,247.466669 384.805327,247.839999 386.064,248.032 C387.322673,248.224001 388.655993,248.32 390.064,248.32 C390.960004,248.32 391.877329,248.298667 392.816,248.256 C393.754671,248.213333 394.607996,248.128001 395.376,248 L395.376,240.96 C394.949331,241.045334 394.501336,241.109333 394.032,241.152 C393.562664,241.194667 393.072003,241.216 392.56,241.216 C391.023992,241.216 390.000003,240.960003 389.488,240.448 C388.975997,239.935997 388.72,238.912008 388.72,237.376 L388.72,220.992 L395.376,220.992 L395.376,214.912 L388.72,214.912 L388.72,214.912 Z M399.344,225.088 C399.472001,222.954656 400.005329,221.184007 400.944,219.776 C401.882671,218.367993 403.077326,217.237338 404.528,216.384 C405.978674,215.530662 407.610658,214.922668 409.424,214.56 C411.237342,214.197332 413.061324,214.016 414.896,214.016 C416.560008,214.016 418.245325,214.133332 419.952,214.368 C421.658675,214.602668 423.215993,215.06133 424.624,215.744 C426.032007,216.42667 427.183996,217.375994 428.08,218.592 C428.976004,219.808006 429.424,221.418657 429.424,223.424 L429.424,240.64 C429.424,242.133341 429.509332,243.56266 429.68,244.928 C429.850668,246.29334 430.149331,247.31733 430.576,248 L421.36,248 C421.189332,247.487997 421.050667,246.965336 420.944,246.432 C420.837333,245.898664 420.762667,245.354669 420.72,244.8 C419.269326,246.293341 417.562676,247.338664 415.6,247.936 C413.637324,248.533336 411.63201,248.832 409.584,248.832 C408.005325,248.832 406.53334,248.640002 405.168,248.256 C403.80266,247.871998 402.608005,247.274671 401.584,246.464 C400.559995,245.653329 399.760003,244.62934 399.184,243.392 C398.607997,242.15466 398.32,240.682675 398.32,238.976 C398.32,237.098657 398.650663,235.552006 399.312,234.336 C399.973337,233.119994 400.826661,232.149337 401.872,231.424 C402.917339,230.698663 404.111993,230.154668 405.456,229.792 C406.800007,229.429332 408.15466,229.141334 409.52,228.928 C410.88534,228.714666 412.229327,228.544001 413.552,228.416 C414.874673,228.287999 416.047995,228.096001 417.072,227.84 C418.096005,227.583999 418.906664,227.210669 419.504,226.72 C420.101336,226.229331 420.378667,225.514671 420.336,224.576 C420.336,223.594662 420.176002,222.816003 419.856,222.24 C419.535998,221.663997 419.109336,221.216002 418.576,220.896 C418.042664,220.575998 417.424004,220.362667 416.72,220.256 C416.015996,220.149333 415.258671,220.096 414.448,220.096 C412.655991,220.096 411.248005,220.479996 410.224,221.248 C409.199995,222.016004 408.602668,223.295991 408.432,225.088 L399.344,225.088 L399.344,225.088 Z M438.448,220.992 L438.448,248 L447.536,248 L447.536,220.992 L453.808,220.992 L453.808,214.912 L447.536,214.912 L447.536,212.928 C447.536,211.56266 447.802664,210.592003 448.336,210.016 C448.869336,209.439997 449.75466,209.152 450.992,209.152 C452.144006,209.152 453.253328,209.215999 454.32,209.344 L454.32,202.56 C453.551996,202.517333 452.762671,202.464 451.952,202.4 C451.141329,202.336 450.330671,202.304 449.52,202.304 C445.807981,202.304 443.034676,203.242657 441.2,205.12 C439.365324,206.997343 438.448,209.407985 438.448,212.352 L438.448,214.912 L433.008,214.912 L433.008,220.992 L438.448,220.992 L438.448,220.992 Z M459.312,214.912 L459.312,248 L468.4,248 L468.4,214.912 L459.312,214.912 L459.312,214.912 Z M468.4,209.792 L468.4,202.304 L459.312,202.304 L459.312,209.792 L468.4,209.792 L468.4,209.792 Z M475.824,202.304 L475.824,248 L484.912,248 L484.912,202.304 L475.824,202.304 L475.824,202.304 Z M492.336,214.912 L492.336,248 L501.424,248 L501.424,228.8 C501.424,227.178659 501.658664,225.866672 502.128,224.864 C502.597336,223.861328 503.162663,223.093336 503.824,222.56 C504.485337,222.026664 505.167996,221.664001 505.872,221.472 C506.576004,221.279999 507.141331,221.184 507.568,221.184 C509.018674,221.184 510.11733,221.429331 510.864,221.92 C511.61067,222.410669 512.143998,223.061329 512.464,223.872 C512.784002,224.682671 512.965333,225.567995 513.008,226.528 C513.050667,227.488005 513.072,228.458662 513.072,229.44 L513.072,248 L522.16,248 L522.16,229.568 C522.16,228.543995 522.234666,227.530672 522.384,226.528 C522.533334,225.525328 522.831998,224.629337 523.28,223.84 C523.728002,223.050663 524.346663,222.410669 525.136,221.92 C525.925337,221.429331 526.959994,221.184 528.24,221.184 C529.520006,221.184 530.53333,221.397331 531.28,221.824 C532.02667,222.250669 532.591998,222.826663 532.976,223.552 C533.360002,224.277337 533.594666,225.130662 533.68,226.112 C533.765334,227.093338 533.808,228.138661 533.808,229.248 L533.808,248 L542.896,248 L542.896,225.856 C542.896,223.722656 542.597336,221.898674 542,220.384 C541.402664,218.869326 540.570672,217.642671 539.504,216.704 C538.437328,215.765329 537.157341,215.082669 535.664,214.656 C534.170659,214.229331 532.549342,214.016 530.8,214.016 C528.495988,214.016 526.501342,214.570661 524.816,215.68 C523.130658,216.789339 521.797338,218.069326 520.816,219.52 C519.919996,217.47199 518.608009,216.042671 516.88,215.232 C515.151991,214.421329 513.242677,214.016 511.152,214.016 C508.975989,214.016 507.045342,214.485329 505.36,215.424 C503.674658,216.362671 502.234673,217.685325 501.04,219.392 L500.912,219.392 L500.912,214.912 L492.336,214.912 L492.336,214.912 Z M268.464,240.192 L268.464,227.648 L279.408,227.648 C281.584011,227.648 283.333327,228.149328 284.656,229.152 C285.978673,230.154672 286.64,231.829322 286.64,234.176 C286.64,235.370673 286.437335,236.351996 286.032,237.12 C285.626665,237.888004 285.08267,238.495998 284.4,238.944 C283.71733,239.392002 282.928004,239.711999 282.032,239.904 C281.135996,240.096001 280.197338,240.192 279.216,240.192 L268.464,240.192 L268.464,240.192 Z M323.12,231.808 C322.735998,232.149335 322.256003,232.415999 321.68,232.608 C321.103997,232.800001 320.485337,232.959999 319.824,233.088 C319.162663,233.216001 318.469337,233.322666 317.744,233.408 C317.018663,233.493334 316.293337,233.599999 315.568,233.728 C314.88533,233.856001 314.213337,234.026666 313.552,234.24 C312.890663,234.453334 312.314669,234.741332 311.824,235.104 C311.333331,235.466668 310.938668,235.925331 310.64,236.48 C310.341332,237.034669 310.192,237.738662 310.192,238.592 C310.192,239.402671 310.341332,240.085331 310.64,240.64 C310.938668,241.194669 311.343997,241.631998 311.856,241.952 C312.368003,242.272002 312.96533,242.495999 313.648,242.624 C314.33067,242.752001 315.034663,242.816 315.76,242.816 C317.552009,242.816 318.938662,242.517336 319.92,241.92 C320.901338,241.322664 321.626664,240.608004 322.096,239.776 C322.565336,238.943996 322.853333,238.101338 322.96,237.248 C323.066667,236.394662 323.12,235.712003 323.12,235.2 L323.12,231.808 L323.12,231.808 Z M420.336,231.808 C419.951998,232.149335 419.472003,232.415999 418.896,232.608 C418.319997,232.800001 417.701337,232.959999 417.04,233.088 C416.378663,233.216001 415.685337,233.322666 414.96,233.408 C414.234663,233.493334 413.509337,233.599999 412.784,233.728 C412.10133,233.856001 411.429337,234.026666 410.768,234.24 C410.106663,234.453334 409.530669,234.741332 409.04,235.104 C408.549331,235.466668 408.154668,235.925331 407.856,236.48 C407.557332,237.034669 407.408,237.738662 407.408,238.592 C407.408,239.402671 407.557332,240.085331 407.856,240.64 C408.154668,241.194669 408.559997,241.631998 409.072,241.952 C409.584003,242.272002 410.18133,242.495999 410.864,242.624 C411.54667,242.752001 412.250663,242.816 412.976,242.816 C414.768009,242.816 416.154662,242.517336 417.136,241.92 C418.117338,241.322664 418.842664,240.608004 419.312,239.776 C419.781336,238.943996 420.069333,238.101338 420.176,237.248 C420.282667,236.394662 420.336,235.712003 420.336,235.2 L420.336,231.808 L420.336,231.808 Z M268.464,220.8 L268.464,210.112 L277.872,210.112 C278.768004,210.112 279.631996,210.186666 280.464,210.336 C281.296004,210.485334 282.031997,210.751998 282.672,211.136 C283.312003,211.520002 283.823998,212.05333 284.208,212.736 C284.592002,213.41867 284.784,214.293328 284.784,215.36 C284.784,217.28001 284.208006,218.666662 283.056,219.52 C281.903994,220.373338 280.432009,220.8 278.64,220.8 L268.464,220.8 L268.464,220.8 Z" id="Path-2" opacity="0.95" sketch:type="MSShapeGroup"/>
        </g>
    </g>
</svg>