<?xml version="1.0" encoding="UTF-8"?>
<!-- Generator: Adobe Illustrator 20.0.0, SVG Export Plug-In . SVG Version: 6.00 Build 0)  -->
<svg version="1.1" id="Layer_1" xmlns="http://www.w3.org/2000/svg" xmlns:xlink="http://www.w3.org/1999/xlink" x="0px" y="0px" viewBox="0 0 1378.4 404.2" style="enable-background:new 0 0 1378.4 404.2;" xml:space="preserve">
<style type="text/css">
	.st0{fill:#D7DF23;}
</style>
<g>
	<path d="M568.8,132.5v59.7h-19.8l26.4,31.3l-15.5,13.3l-37.6-44.6h-32.6v38.8h-19.4v-98.6H568.8z M548.6,152.7h-59v19.4h59V152.7z"/>
	<path d="M639,151.9v59H670v20.2h-81.2v-20.2h30.9v-59h-30.9v-19.6H670v19.6H639z"/>
	<path d="M789.1,191.5h-79.2v39.6h-19.4v-98.6h98.6V191.5z M768.9,152.7h-59v19.2h59V152.7z"/>
	<path d="M828.6,152.7v19.4H907v59h-97.8v-19.6h78.4v-19.2h-78.4v-59.2H907v19.6H828.6z"/>
	<path d="M1025.4,152.7h-38.8v78.4h-20.2v-78.4h-38.8v-20.2h97.8V152.7z"/>
	<path d="M1140,231.1h-98.6v-98.8h98.6V231.1z M1120.6,151.9h-59v59h59V151.9z"/>
	<path d="M1259.5,132.5v98.6h-19.4l-59-67.7v67.7h-19.4v-98.6h19.4l59,67.7v-67.7H1259.5z"/>
	<path d="M1300,151.9v20h78.4v19.6H1300v19.4h78.4v20.2h-98.6v-98.8h98.6v19.6H1300z"/>
</g>
<polygon class="st0" points="137.6,362 203.4,362 203.4,234.1 232.6,234.1 375.3,404.2 425.7,361.9 318.5,234.1 384,234.1 384,0   137.6,0 137.6,65.8 318.2,65.8 318.2,168.3 0,168.3 0,234.1 137.6,234.1 "/>
</svg>