<?xml version="1.0" encoding="UTF-8"?>
<svg width="325" height="100" version="1.1" viewBox="0 0 85.99 26.458" xmlns="http://www.w3.org/2000/svg" xmlns:cc="http://creativecommons.org/ns#" xmlns:dc="http://purl.org/dc/elements/1.1/" xmlns:rdf="http://www.w3.org/1999/02/22-rdf-syntax-ns#">
 <metadata>
  <rdf:RDF>
   <cc:Work rdf:about="">
    <dc:format>image/svg+xml</dc:format>
    <dc:type rdf:resource="http://purl.org/dc/dcmitype/StillImage"/>
    <dc:title/>
   </cc:Work>
  </rdf:RDF>
 </metadata>
 <rect width="85.99" height="26.458" fill="#23221f" stroke-width=".28075"/>
 <g transform="matrix(1.0351 0 0 1.0353 -41.039 -25.831)" fill="#fff" style="shape-inside:url(#rect869-31-4-7-0-6);white-space:pre" aria-label="MP2">
  <path d="m69.68 46.034v-16.358h5.842l3.3274 6.7564 3.302-6.7564h5.842v16.358h-6.1468v-5.7404l-1.4478 2.9464h-3.1242l-1.4478-2.9464v5.7404z"/>
  <path d="m89.771 46.034v-16.358h9.1948q2.1082 0 3.4798 0.8636t2.032 2.3114q0.6858 1.4478 0.6858 3.2004 0 1.778-0.7874 3.2258-0.762 1.4224-2.1844 2.2606-1.397 0.8382-3.3274 0.8382h-2.9464v3.6576zm6.1468-8.4582h1.4986q0.7366 0 1.1176-0.4064t0.381-1.1176q0-1.5748-1.397-1.5748h-1.6002z"/>
  <path d="m105.42 46.034v-2.7178q0.7366-1.1938 1.651-2.1844 0.9144-1.016 2.0828-2.032 1.4224-1.2192 2.0574-1.8796t0.635-1.3716q0-1.1938-1.7526-1.1938-1.143 0-2.2098 0.254-1.0414 0.254-1.9812 0.6604v-5.1054q1.1176-0.4826 2.6416-0.762t3.175-0.2794q3.2512 0 4.826 1.4732t1.5748 3.8608q0 1.0414-0.2286 1.8034t-0.762 1.4478q-0.508 0.6604-1.397 1.4478-0.508 0.4572-1.1176 0.9906-0.6096 0.508-0.889 0.9144h4.5212v4.6736z"/>
 </g>
 <g>
  <rect width="26.458" height="26.458" fill="#ff375f" stroke-width=".15248"/>
  <rect x="6.6146" y="6.6146" width="13.229" height="13.229" fill="#23221f" stroke-width=".15002"/>
  <rect x="9.9219" y="9.9219" width="6.6146" height="6.6146" fill="#ff375f" stroke-width=".21226"/>
 </g>
</svg>